<svg
  xmlns="http://www.w3.org/2000/svg"
  width="64"
  height="64"
  viewBox="0 0 64 64"
  fill="none"
>
  <rect width="64" height="64" rx="18" fill="#111827" />
  <rect x="8" y="8" width="48" height="48" rx="14" fill="#F8FAFC" />

  <rect x="14" y="18" width="13" height="28" rx="6.5" fill="#DBEAFE" />
  <rect x="37" y="18" width="13" height="28" rx="6.5" fill="#D1FAE5" />

  <rect x="17" y="22" width="7" height="3" rx="1.5" fill="#2563EB" />
  <rect x="17" y="28" width="7" height="3" rx="1.5" fill="#2563EB" opacity="0.82" />
  <rect x="17" y="34" width="7" height="3" rx="1.5" fill="#2563EB" opacity="0.64" />

  <rect x="40" y="22" width="7" height="3" rx="1.5" fill="#059669" />
  <rect x="40" y="28" width="7" height="3" rx="1.5" fill="#059669" opacity="0.82" />
  <rect x="40" y="34" width="7" height="3" rx="1.5" fill="#059669" opacity="0.64" />

  <path
    d="M29 24.5H38.5L35.5 21.5"
    stroke="#0F172A"
    stroke-width="3"
    stroke-linecap="round"
    stroke-linejoin="round"
  />
  <path
    d="M35 39.5H25.5L28.5 42.5"
    stroke="#0F172A"
    stroke-width="3"
    stroke-linecap="round"
    stroke-linejoin="round"
  />
</svg>
